<svg version="1.1" xmlns="http://www.w3.org/2000/svg" xmlns:xlink="http://www.w3.org/1999/xlink">
	<defs>
		<symbol id="icon-image" viewBox="0 0 20 20">
			<path d="M18.555,15.354V4.592c0-0.248-0.202-0.451-0.45-0.451H1.888c-0.248,0-0.451,0.203-0.451,0.451v10.808c0,0.559,0.751,0.451,0.451,0.451h16.217h0.005C18.793,15.851,18.478,14.814,18.555,15.354 M2.8,14.949l4.944-6.464l4.144,5.419c0.003,0.003,0.003,0.003,0.003,0.005l0.797,1.04H2.8z M13.822,14.949l-1.006-1.317l1.689-2.218l2.688,3.535H13.822z M17.654,14.064l-2.791-3.666c-0.181-0.237-0.535-0.237-0.716,0l-1.899,2.493l-4.146-5.42c-0.18-0.237-0.536-0.237-0.716,0l-5.047,6.598V5.042h15.316V14.064z M12.474,6.393c-0.869,0-1.577,0.707-1.577,1.576s0.708,1.576,1.577,1.576s1.577-0.707,1.577-1.576S13.343,6.393,12.474,6.393 M12.474,8.645c-0.371,0-0.676-0.304-0.676-0.676s0.305-0.676,0.676-0.676c0.372,0,0.676,0.304,0.676,0.676S12.846,8.645,12.474,8.645"></path>
		</symbol>
		<symbol id="icon-sound" viewBox="0 0 20 20">
			<path d="M16.899,3.05c-0.085-0.068-0.192-0.095-0.299-0.074L7.947,4.779c-0.17,0.034-0.291,0.182-0.291,0.353v7.364c-0.494-0.536-1.199-0.873-1.983-0.873c-1.491,0-2.704,1.213-2.704,2.704s1.213,2.704,2.704,2.704c1.491,0,2.705-1.213,2.705-2.704V7.952l7.933-1.659v4.399c-0.494-0.535-1.199-0.873-1.983-0.873c-1.491,0-2.704,1.213-2.704,2.704c0,1.492,1.213,2.705,2.704,2.705c1.49,0,2.704-1.213,2.704-2.705V3.33C17.031,3.221,16.982,3.119,16.899,3.05 M5.673,16.311c-1.094,0-1.983-0.889-1.983-1.983s0.889-1.983,1.983-1.983c1.095,0,1.983,0.889,1.983,1.983S6.768,16.311,5.673,16.311 M14.327,14.508c-1.095,0-1.983-0.889-1.983-1.984c0-1.094,0.889-1.982,1.983-1.982c1.094,0,1.983,0.889,1.983,1.982C16.311,13.619,15.421,14.508,14.327,14.508 M16.311,5.558L8.377,7.217V5.428l7.933-1.659V5.558z"></path>
		<symbol id="icon-gallery" viewBox="0 0 20 20">
			<path d="M17.927,5.828h-4.41l-1.929-1.961c-0.078-0.079-0.186-0.125-0.297-0.125H4.159c-0.229,0-0.417,0.188-0.417,0.417v1.669H2.073c-0.229,0-0.417,0.188-0.417,0.417v9.596c0,0.229,0.188,0.417,0.417,0.417h15.854c0.229,0,0.417-0.188,0.417-0.417V6.245C18.344,6.016,18.156,5.828,17.927,5.828 M4.577,4.577h6.539l1.231,1.251h-7.77V4.577z M17.51,15.424H2.491V6.663H17.51V15.424z"></path>
		</symbol>
		</symbol>
		<symbol id="icon-check" viewBox="0 0 20 20">
			<path d="M7.629,14.566c0.125,0.125,0.291,0.188,0.456,0.188c0.164,0,0.329-0.062,0.456-0.188l8.219-8.221c0.252-0.252,0.252-0.659,0-0.911c-0.252-0.252-0.659-0.252-0.911,0l-7.764,7.763L4.152,9.267c-0.252-0.251-0.66-0.251-0.911,0c-0.252,0.252-0.252,0.66,0,0.911L7.629,14.566z"></path>
		</symbol>
		<symbol id="icon-cross" viewBox="0 0 20 20">
			<path d="M15.898,4.045c-0.271-0.272-0.713-0.272-0.986,0l-4.71,4.711L5.493,4.045c-0.272-0.272-0.714-0.272-0.986,0s-0.272,0.714,0,0.986l4.709,4.711l-4.71,4.711c-0.272,0.271-0.272,0.713,0,0.986c0.136,0.136,0.314,0.203,0.492,0.203c0.179,0,0.357-0.067,0.493-0.203l4.711-4.711l4.71,4.711c0.137,0.136,0.314,0.203,0.494,0.203c0.178,0,0.355-0.067,0.492-0.203c0.273-0.273,0.273-0.715,0-0.986l-4.711-4.711l4.711-4.711C16.172,4.759,16.172,4.317,15.898,4.045z"></path>
		</symbol>
		<symbol id="icon-left-arrow" viewBox="0 0 20 20">
			<path d="M8.388,10.049l4.76-4.873c0.303-0.31,0.297-0.804-0.012-1.105c-0.309-0.304-0.803-0.293-1.105,0.012L6.726,9.516c-0.303,0.31-0.296,0.805,0.012,1.105l5.433,5.307c0.152,0.148,0.35,0.223,0.547,0.223c0.203,0,0.406-0.08,0.559-0.236c0.303-0.309,0.295-0.803-0.012-1.104L8.388,10.049z"></path>
		</symbol>
		<symbol id="icon-right-arrow" viewBox="0 0 20 20">
			<path d="M11.611,10.049l-4.76-4.873c-0.303-0.31-0.297-0.804,0.012-1.105c0.309-0.304,0.803-0.293,1.105,0.012l5.306,5.433c0.304,0.31,0.296,0.805-0.012,1.105L7.83,15.928c-0.152,0.148-0.35,0.223-0.547,0.223c-0.203,0-0.406-0.08-0.559-0.236c-0.303-0.309-0.295-0.803,0.012-1.104L11.611,10.049z"></path>
		</symbol>
		<symbol id="icon-trash" viewBox="0 0 20 20">
			<path d="M16.471,5.962c-0.365-0.066-0.709,0.176-0.774,0.538l-1.843,10.217H6.096L4.255,6.5c-0.066-0.362-0.42-0.603-0.775-0.538C3.117,6.027,2.876,6.375,2.942,6.737l1.94,10.765c0.058,0.318,0.334,0.549,0.657,0.549h8.872c0.323,0,0.6-0.23,0.656-0.549l1.941-10.765C17.074,6.375,16.833,6.027,16.471,5.962z"></path>
			<path d="M16.594,3.804H3.406c-0.369,0-0.667,0.298-0.667,0.667s0.299,0.667,0.667,0.667h13.188c0.369,0,0.667-0.298,0.667-0.667S16.963,3.804,16.594,3.804z"></path>
			<path d="M9.25,3.284h1.501c0.368,0,0.667-0.298,0.667-0.667c0-0.369-0.299-0.667-0.667-0.667H9.25c-0.369,0-0.667,0.298-0.667,0.667C8.583,2.985,8.882,3.284,9.25,3.284z"></path>
		</symbol>
		<symbol id="icon-loader" viewBox="0 0 100 100">
			<rect x="0" y="0" width="100" height="100" fill="none" stroke-width="0"></rect>
      <g>
        <animate attributeName="opacity" dur="2s" repeatCount="indefinite" begin="0s" keyTimes="0;0.33;1" values="1;1;0"></animate>
        <circle cx="50" cy="50" r="40" fill="none" stroke="black" stroke-width="5" stroke-linecap="round">
          <animate attributeName="r" dur="2s" repeatCount="indefinite" begin="0s" keyTimes="0;0.33;1" values="0;22;44"></animate>
        </circle>
      </g>
      <g>
        <animate attributeName="opacity" dur="2s" repeatCount="indefinite" begin="1s" keyTimes="0;0.33;1" values="1;1;0"></animate>
        <circle cx="50" cy="50" r="40" fill="none" stroke="black" stroke-width="5" stroke-linecap="round">
          <animate attributeName="r" dur="2s" repeatCount="indefinite" begin="1s" keyTimes="0;0.33;1" values="0;22;44"></animate>
        </circle>
      </g>
		</symbol>
	</defs>
</svg>
